<svg width="50" height="37" viewBox="0 0 50 37" fill="none" xmlns="http://www.w3.org/2000/svg">
<g clip-path="url(#clip0_450_338)">
<mask id="mask0_450_338" style="mask-type:luminance" maskUnits="userSpaceOnUse" x="0" y="0" width="50" height="37">
<path d="M49.5 0H0V36.75H49.5V0Z" fill="white"/>
</mask>
<g mask="url(#mask0_450_338)">
<mask id="mask1_450_338" style="mask-type:luminance" maskUnits="userSpaceOnUse" x="-13" y="0" width="75" height="37">
<path d="M62 0H-13V36.75H62V0Z" fill="white"/>
</mask>
<g mask="url(#mask1_450_338)">
<path d="M2.15454 26.125H8.15454V17.8375C8.15454 16.7875 8.15454 15.175 9.20454 14.1625C9.69204 13.675 10.217 13.5625 10.8545 13.5625C11.4545 13.5625 12.1295 13.675 12.6545 14.2375C13.3295 14.95 13.442 16.225 13.442 17.8375V26.125H19.442V17.5375C19.442 16.7125 19.517 15.325 20.5295 14.35C21.0545 13.8625 21.617 13.675 22.292 13.675C23.0795 13.675 23.5295 13.9375 23.867 14.2375C24.542 14.875 24.7295 16.075 24.7295 17.8375V26.125H30.7295V15.2125C30.7295 14.05 30.6545 12.0625 29.1545 10.6C27.767 9.24999 25.742 9.06249 24.5045 9.06249C23.3795 9.06249 22.217 9.21249 21.017 9.88749C20.267 10.3 19.4045 11.0125 18.7295 12.2125C18.317 11.3875 17.642 10.45 16.4045 9.81249C15.5045 9.32499 14.3795 9.06249 13.1795 9.06249C11.5295 9.06249 9.57954 9.66249 8.15454 11.3875V9.36249H2.15454V26.125ZM47.5688 20.725C46.4813 21.6625 45.3563 21.85 44.4938 21.85C42.9563 21.85 41.9813 21.175 41.4188 20.575C40.7063 19.7875 40.3688 18.7 40.3688 17.7625C40.3688 16.7875 40.7063 15.7 41.5313 14.875C42.1313 14.275 43.0313 13.7125 44.4563 13.7125C45.7313 13.7125 46.7813 14.2375 47.5688 14.8V9.77499C46.0688 9.02499 44.7188 8.83749 43.6688 8.83749C40.8188 8.83749 38.4938 9.88749 36.9188 11.3875C35.2313 13.0375 34.2188 15.4 34.2188 17.875C34.2188 20.35 35.2313 22.6 36.8063 24.1375C38.0063 25.3 40.1438 26.6875 43.4063 26.6875C44.6438 26.6875 45.9563 26.5375 47.5688 25.75V20.725Z" fill="#0B0D11"/>
<mask id="mask2_450_338" style="mask-type:luminance" maskUnits="userSpaceOnUse" x="-1" y="33" width="51" height="4">
<path d="M49.25 33.625H-0.25V36.625H49.25V33.625Z" fill="white"/>
</mask>
<g mask="url(#mask2_450_338)">
<path d="M65.75 33.625H-0.25V37.625H65.75V33.625Z" fill="#E02631"/>
</g>
</g>
</g>
</g>
<defs>
<clipPath id="clip0_450_338">
<rect width="50" height="37" fill="white"/>
</clipPath>
</defs>
</svg>
